<?xml version="1.0" encoding="iso-8859-1"?>
<!-- Uploaded to: SVG Repo, www.svgrepo.com, Generator: SVG Repo Mixer Tools -->
<svg fill="#000000" height="800px" width="800px" version="1.1" id="Layer_1" xmlns="http://www.w3.org/2000/svg" xmlns:xlink="http://www.w3.org/1999/xlink" 
	 viewBox="0 0 512 512" xml:space="preserve">
<g>
	<g>
		<circle cx="81.455" cy="69.818" r="11.636"/>
	</g>
</g>
<g>
	<g>
		<circle cx="128" cy="69.818" r="11.636"/>
	</g>
</g>
<g>
	<g>
		<path d="M453.818,0H58.182C38.4,0,23.273,15.127,23.273,34.909v69.818c0,19.782,15.127,34.909,34.909,34.909v23.273
			c-19.782,0-34.909,15.127-34.909,34.909c0,19.782,15.127,34.909,34.909,34.909h46.545c15.127,0,27.927-9.309,32.582-23.273h68.655
			l3.491,13.964c1.164,4.655,5.818,9.309,11.636,9.309h69.818c5.818,0,10.473-3.491,11.636-9.309l9.309-39.564
			c15.127-4.655,25.6-17.455,25.6-33.745v-23.273c0-6.982-4.655-11.636-11.636-11.636H58.182c-6.982,0-11.636-4.655-11.636-11.636
			V34.909c0-6.982,4.655-11.636,11.636-11.636h395.636c6.982,0,11.636,4.655,11.636,11.636v69.818
			c0,6.982-4.655,11.636-11.636,11.636h-81.455c-6.982,0-11.636,4.655-11.636,11.636s4.655,11.636,11.636,11.636h58.182V384
			c0,6.982,4.655,11.636,11.636,11.636s11.636-4.655,11.636-11.636V139.636c19.782,0,34.909-15.127,34.909-34.909V34.909
			C488.727,15.127,473.6,0,453.818,0z M281.6,209.455h-51.2l-5.818-23.273h62.836L281.6,209.455z M197.818,139.636h116.364v11.636
			c0,6.982-4.655,11.636-11.636,11.636h-93.091c-6.982,0-11.636-4.655-11.636-11.636V139.636z M93.091,162.909H81.455v-23.273
			h93.091v11.636c0,16.291,10.473,29.091,25.6,33.745v1.164H128c-6.982,0-11.636,4.655-11.636,11.636s-4.655,11.636-11.636,11.636
			H58.182c-6.982,0-11.636-4.655-11.636-11.636s4.655-11.636,11.636-11.636h34.909c6.982,0,11.636-4.655,11.636-11.636
			S100.073,162.909,93.091,162.909z"/>
	</g>
</g>
<g>
	<g>
		<path d="M453.818,418.909H335.127c1.164-3.491,2.327-6.982,2.327-11.636v-34.909h11.636c19.782,0,34.909-15.127,34.909-34.909
			v-46.545C384,271.127,368.873,256,349.091,256h-23.273c-6.982,0-11.636,4.655-11.636,11.636v46.545
			c0,6.982,4.655,11.636,11.636,11.636s11.636-4.655,11.636-11.636v-34.909h11.636c6.982,0,11.636,4.655,11.636,11.636v46.545
			c0,6.982-4.655,11.636-11.636,11.636h-23.273c-6.982,0-11.636,4.655-11.636,11.636v46.545c0,6.982-4.655,11.636-11.636,11.636
			h-93.091c-6.982,0-11.636-4.655-11.636-11.636v-128h81.455c6.982,0,11.636-4.655,11.636-11.636S286.255,256,279.273,256h-93.091
			c-6.982,0-11.636,4.655-11.636,11.636v139.636c0,4.655,1.164,8.145,2.327,11.636h-60.509c-6.982,0-11.636,4.655-11.636,11.636
			s4.655,11.636,11.636,11.636h93.091h93.091h151.273c6.982,0,11.636,4.655,11.636,11.636v23.273
			c0,6.982-4.655,11.636-11.636,11.636H58.182c-6.982,0-11.636-4.655-11.636-11.636v-23.273c0-6.982,4.655-11.636,11.636-11.636
			h11.636c6.982,0,11.636-4.655,11.636-11.636V267.636c0-6.982-4.655-11.636-11.636-11.636s-11.636,4.655-11.636,11.636v151.273
			c-19.782,0-34.909,15.127-34.909,34.909v23.273C23.273,496.873,38.4,512,58.182,512h395.636c19.782,0,34.909-15.127,34.909-34.909
			v-23.273C488.727,434.036,473.6,418.909,453.818,418.909z"/>
	</g>
</g>
<g>
	<g>
		<path d="M384,58.182h-69.818c-6.982,0-11.636,4.655-11.636,11.636s4.655,11.636,11.636,11.636H384
			c6.982,0,11.636-4.655,11.636-11.636S390.982,58.182,384,58.182z"/>
	</g>
</g>
</svg>