<?xml version="1.0" encoding="utf-8"?>
<!-- Generator: Adobe Illustrator 24.0.2, SVG Export Plug-In . SVG Version: 6.00 Build 0)  -->
<svg version="1.1" id="Layer_1" focusable="false" xmlns="http://www.w3.org/2000/svg" xmlns:xlink="http://www.w3.org/1999/xlink"
	 x="0px" y="0px" width="32px" height="32px" viewBox="0 0 32 32" style="enable-background:new 0 0 32 32;" xml:space="preserve">
<style type="text/css">
	.st0{fill:#FFFFFF;stroke:#000000;stroke-width:2;stroke-miterlimit:10;}
</style>
<path d="M25.5,19.9c0,0.5-0.4,1-1,1s-1-0.4-1-1s0.4-1,1-1S25.5,19.4,25.5,19.9z M7.4,19c-0.5,0-1,0.4-1,1s0.4,1,1,1s1-0.4,1-1
	S8,19,7.4,19z M27.1,14.2l0.4,1.1c1.1,0.9,1.8,2.2,1.8,3.7v8.6c0,1-0.9,1.9-1.9,1.9h-1.9c-1,0-1.9-0.9-1.9-1.9v-1.9H8.4v1.9
	c0,1-0.9,1.9-1.9,1.9H4.6c-1,0-1.9-0.9-1.9-1.9V19c0-1.5,0.7-2.8,1.8-3.7l0.4-1.1H2.7v-1.9h2.9v0.1l1.7-4.6c0.3-0.7,1-1.2,1.8-1.2
	h13.9c0.8,0,1.5,0.5,1.8,1.2l1.7,4.6v-0.1h2.9v1.9H27.1z M6.5,25.6H4.6v1.9h1.9V25.6z M27.4,25.6h-1.9v1.9h1.9V25.6z M27.4,23.7V19
	c0-1.6-1.3-2.9-2.9-2.9H7.4c-1.6,0-2.9,1.3-2.9,2.9v4.8H27.4z M24.6,14.2h0.5l-2.1-5.7H9.1l-2.1,5.7H24.6z M10.3,20.9h11.4V19H10.3
	V20.9z"/>
<polyline class="st0" points="1.5,4.7 15.6,2.2 30.4,4.7 "/>
</svg>
