<?xml version="1.0" encoding="utf-8"?>
<!-- Generator: Adobe Illustrator 24.0.2, SVG Export Plug-In . SVG Version: 6.00 Build 0)  -->
<svg version="1.1" id="Layer_1" focusable="false" xmlns="http://www.w3.org/2000/svg" xmlns:xlink="http://www.w3.org/1999/xlink"
	 x="0px" y="0px" width="32px" height="32px" viewBox="0 0 32 32" style="enable-background:new 0 0 32 32;" xml:space="preserve">
<path d="M3,3v4h26V3h2v18c0,2.4-1.7,4.4-4,4.9l0,4.1h-2v-4H7v4H5v-4.1c-2.2-0.5-3.9-2.4-4-4.7L1,21V3H3z M9,9H7v15h2V9z M13,9h-2v15
	h2V9z M17,9h-2v15h2V9z M21,9h-2v15h2V9z M25,9h-2v15h2V9z M5,9H3v12c0,1.3,0.8,2.4,2,2.8V9z M29,9h-2v14.8c1.1-0.4,1.9-1.4,2-2.7
	l0-0.2V9z"/>
</svg>
