<?xml version="1.0" encoding="utf-8"?>
<!-- Generator: Adobe Illustrator 24.0.2, SVG Export Plug-In . SVG Version: 6.00 Build 0)  -->
<svg version="1.1" id="Layer_1" focusable="false" xmlns="http://www.w3.org/2000/svg" xmlns:xlink="http://www.w3.org/1999/xlink"
	 x="0px" y="0px" width="32px" height="32px" viewBox="0 0 32 32" style="enable-background:new 0 0 32 32;" xml:space="preserve">
<path d="M19,1v2H4v14h1.3c0.6-2,1.9-3.7,3.8-4.6C7.4,10.4,7.7,7.6,9.6,6s4.8-1.3,6.3,0.6c1.4,1.7,1.4,4.1,0,5.7
	c1.8,1,3.2,2.6,3.8,4.6H28v-5h2v17c0,1.1-1,2-2,2H4c-1.1,0-2-1-2-2V3c0-1.1,1-2,2-2H19z M4,19v10h24V19H4z M12.5,7
	C11.1,7,10,8.1,10,9.5c0,0.9,0.5,1.8,1.3,2.2l0.2,0.1v1.8c-1.9,0.3-3.4,1.6-4.1,3.4h10.2c-0.7-1.7-2.1-3-3.9-3.4l-0.2,0v-1.8
	c1.3-0.6,1.8-2,1.3-3.3C14.4,7.6,13.5,7,12.5,7z M28,1l2,0c0,2.1-0.5,3.3-1.8,5.4l-0.8,1.2c-1.1,1.7-1.4,2.7-1.5,4.2l0,0.2h-2
	c0-2.2,0.5-3.5,2-5.7l0.6-0.9C27.6,3.7,28,2.7,28,1.2C28,1.2,28,1,28,1z M23,1l2,0c0,2.1-0.5,3.3-1.8,5.4l-0.8,1.2
	c-1.1,1.7-1.4,2.7-1.5,4.2l0,0.2h-2c0-2.2,0.5-3.5,2-5.7l0.6-0.9C22.6,3.7,23,2.7,23,1.2C23,1.2,23,1,23,1z"/>
</svg>
