<?xml version="1.0" encoding="utf-8"?>
<!-- Generator: Adobe Illustrator 24.0.2, SVG Export Plug-In . SVG Version: 6.00 Build 0)  -->
<svg version="1.1" xmlns="http://www.w3.org/2000/svg" xmlns:xlink="http://www.w3.org/1999/xlink" x="0px" y="0px" width="32px"
	 height="32px" viewBox="0 0 32 32" style="enable-background:new 0 0 32 32;" xml:space="preserve">
<g id="Layer_1" focusable="false">
</g>
<g id="Layer_2">
	<g>
		<path d="M12.6,8.1c0,1.5-1.2,2.8-2.8,2.8c-1.5,0-2.8-1.2-2.8-2.8c0-1.5,1.2-2.8,2.8-2.8C11.4,5.3,12.6,6.6,12.6,8.1"/>
		<path d="M17.2,24.5H2.7c-0.6,0-1.1,0.5-1.1,1.1c0,0.5,0.3,0.9,0.7,1V30c0,0.6,0.5,1.1,1.1,1.1c0.6,0,1.1-0.5,1.1-1.1v-3.3h10.7V30
			c0,0.6,0.5,1.1,1.1,1.1c0.6,0,1.1-0.5,1.1-1.1v-3.4c0.5-0.1,0.9-0.5,0.9-1.1C18.3,25,17.8,24.5,17.2,24.5L17.2,24.5z"/>
		<path d="M19.4,12.7c0.3,1.2-0.2,2.4-0.9,3.4c1-0.8,1.7-2,1.9-3.3c0.1-0.3,0.1-0.6,0-0.9c-0.1-0.8-0.8-1.4-1.3-2
			c-0.8-1.1-1.1-2.7-0.6-4.1c-1,1.2-1.3,3-0.6,4.4C18.4,11.1,19.1,11.8,19.4,12.7L19.4,12.7z"/>
		<path d="M21.6,8.9c0.5,1.4,0.4,3-0.3,4.3c0.9-0.7,1.8-1.5,2.4-2.6s0.8-2.3,0.3-3.4c-0.4-0.9-1.1-1.6-1.6-2.5
			c-0.6-1.2-0.5-2.6,0.1-3.7c-1.7,1.1-2.7,3.4-2,5.3C20.7,7.2,21.2,8,21.6,8.9L21.6,8.9z"/>
		<path d="M30.4,11.4c-0.2-1-0.7-1.9-1.4-2.7c-0.2-0.3-0.5-0.6-0.4-1c-0.2,0.4-0.1,0.8,0,1.2c0.1,0.4,0.4,0.7,0.5,1.1
			c0.2,0.8,0,1.7-0.4,2.5c-0.4,0.8-0.9,1.5-1.2,2.3c-0.3,0.8-0.3,1.8,0.3,2.5c-0.2-0.6,0.1-1.3,0.5-1.8c0.4-0.5,1-0.8,1.4-1.3
			C30.3,13.5,30.5,12.4,30.4,11.4L30.4,11.4z"/>
		<path d="M21.8,21.1c-0.3-0.6-0.8-1-1.5-1l-2.1-0.3c0-0.1-0.1-0.3-0.2-0.4c-0.5-0.5-1.4-1.7-1.7-2.1c-0.1-0.2-0.4-0.3-0.6-0.2h0
			L14,12c-0.2-0.8-1.1-1.2-1.8-1l-2.4,0.7c-0.2,0.1-0.4,0.2-0.6,0.3c-2,1.4-3.8,4.1-3.8,4.1c-0.3,0.3-0.4,0.6-0.4,1
			c0,0.1,0,0.2,0,0.2v4.9c0,0.8,0.6,1.4,1.4,1.4c0.8,0,1.4-0.6,1.4-1.4v-4.9v-0.2L9,16l1.3,4.2c-1.1,1.2-1.4,2.4-1.5,2.5
			c0,0.1,0,0.3,0.1,0.4c0.1,0.1,0.2,0.2,0.4,0.2l4.7,0.9h0.1c0.2,0,0.4-0.1,0.5-0.3c0.2-0.4,0.5-0.8,1-1.3l3.9,0.5l3.9,7.6
			c0.3,0.4,0.9,0.6,1.3,0.3l0.3-0.2c0.5-0.3,0.6-0.8,0.4-1.3L21.8,21.1z M13.8,23.1l-3.7-0.7c0.5-1,2-3.2,5.5-4.2
			c0.3,0.4,0.8,1,1.2,1.5C16.1,20.5,14.5,21.9,13.8,23.1z"/>
	</g>
</g>
</svg>
