<?xml version="1.0" encoding="utf-8"?>
<!-- Generator: Adobe Illustrator 24.0.2, SVG Export Plug-In . SVG Version: 6.00 Build 0)  -->
<svg version="1.1" id="Layer_1" focusable="false" xmlns="http://www.w3.org/2000/svg" xmlns:xlink="http://www.w3.org/1999/xlink"
	 x="0px" y="0px" width="32px" height="32px" viewBox="0 0 32 32" style="enable-background:new 0 0 32 32;" xml:space="preserve">
<path d="M23,1c1,0,1.9,0.8,2,1.8L25,3v16h4v2h-2v8h2v2H3v-2h2v-8H3v-2h4V3c0-1,0.8-1.9,1.9-2L9,1H23z M9,21H7v8h2V21z M13,21h-2v8h2
	V21z M17,21h-2v8h2V21z M21,21h-2v8h2V21z M25,21h-2v8h2V21z M15,13H9v6h6V13z M23,13h-6v6h6V13z M15,3H9v8h6V3z M23,3h-6v8h6V3z"/>
</svg>
