<?xml version="1.0" encoding="utf-8"?>
<!-- Generator: Adobe Illustrator 24.0.2, SVG Export Plug-In . SVG Version: 6.00 Build 0)  -->
<svg version="1.1" id="Layer_1" focusable="false" xmlns="http://www.w3.org/2000/svg" xmlns:xlink="http://www.w3.org/1999/xlink"
	 x="0px" y="0px" width="32px" height="32px" viewBox="0 0 32 32" style="enable-background:new 0 0 32 32;" xml:space="preserve">
<path d="M28,2c1,0,1.9,0.8,2,1.8L30,4v24c0,1-0.8,1.9-1.9,2L28,30H4c-1,0-1.9-0.8-2-1.9L2,28V4c0-1,0.8-1.9,1.8-2L4,2H28z M15,13H9
	v8H4v7h24v-7h-3v4H15V13z M12,23c0.6,0,1,0.4,1,1s-0.4,1-1,1s-1-0.4-1-1S11.4,23,12,23z M28,4H4v15h3v-6c0-1,0.8-1.9,1.9-2L9,11h6
	c1,0,1.9,0.8,2,1.9l0,0.1v10h6v-2c0-1,0.8-1.9,1.9-2l0.1,0h3V4z M12,19c0.6,0,1,0.4,1,1s-0.4,1-1,1s-1-0.4-1-1S11.4,19,12,19z
	 M12,15c0.6,0,1,0.4,1,1c0,0.6-0.4,1-1,1s-1-0.4-1-1C11,15.4,11.4,15,12,15z M22,7c1.7,0,3,1.3,3,3s-1.3,3-3,3s-3-1.3-3-3
	S20.3,7,22,7z M22,9c-0.6,0-1,0.4-1,1s0.4,1,1,1s1-0.4,1-1S22.6,9,22,9z"/>
</svg>
