<?xml version="1.0" encoding="utf-8"?>
<!-- Generator: Adobe Illustrator 24.0.2, SVG Export Plug-In . SVG Version: 6.00 Build 0)  -->
<svg version="1.1" id="Layer_1" xmlns="http://www.w3.org/2000/svg" xmlns:xlink="http://www.w3.org/1999/xlink" x="0px" y="0px"
	 width="603.4px" height="172.6px" viewBox="0 0 603.4 172.6" style="enable-background:new 0 0 603.4 172.6;" xml:space="preserve"
	>
<style type="text/css">
	.st0{fill-rule:evenodd;clip-rule:evenodd;fill:#009EE3;}
	.st1{fill-rule:evenodd;clip-rule:evenodd;fill:#113984;}
	.st2{fill-rule:evenodd;clip-rule:evenodd;fill:#172C70;}
</style>
<title>paypal-seeklogo.com</title>
<path class="st0" d="M68.7,50h38.7c20.8,0,28.6,10.5,27.4,26c-2,25.5-17.4,39.7-37.9,39.7H86.6c-2.8,0-4.7,1.9-5.5,6.9l-4.4,29.3
	c-0.3,1.9-1.3,3-2.8,3.1H49.6c-2.3,0-3.1-1.8-2.5-5.5L62,55.5C62.6,51.8,64.6,50,68.7,50z"/>
<path class="st1" d="M236.9,48.2c13.1,0,25.1,7.1,23.5,24.8c-2,21-13.2,32.6-31,32.7h-15.5c-2.2,0-3.3,1.8-3.9,5.5l-3,19.1
	c-0.5,2.9-1.9,4.3-4.1,4.3h-14.4c-2.3,0-3.1-1.5-2.6-4.8l11.9-76.4c0.6-3.8,2-5.2,4.6-5.2H236.9L236.9,48.2z M213.4,89.2h11.8
	c7.4-0.3,12.2-5.4,12.7-14.5c0.3-5.7-3.5-9.7-9.6-9.7l-11.1,0L213.4,89.2L213.4,89.2z M299.6,128.7c1.3-1.2,2.7-1.8,2.5-0.3
	l-0.5,3.5c-0.2,1.9,0.5,2.8,2.2,2.8h12.8c2.2,0,3.2-0.9,3.7-4.2l7.9-49.6c0.4-2.5-0.2-3.7-2.1-3.7h-14.1c-1.3,0-1.9,0.7-2.2,2.6
	l-0.5,3c-0.3,1.6-1,1.9-1.7,0.3c-2.4-5.7-8.5-8.2-17-8c-19.8,0.4-33.1,15.4-34.5,34.7c-1.1,14.9,9.6,26.6,23.6,26.6
	C290,136.5,294.5,133.5,299.6,128.7L299.6,128.7L299.6,128.7z M288.9,121.1c-8.5,0-14.4-6.8-13.2-15.1s9.2-15.1,17.7-15.1
	s14.4,6.8,13.2,15.1S297.4,121.1,288.9,121.1L288.9,121.1z M353.4,77.1h-13c-2.7,0-3.8,2-2.9,4.5l16.1,47.3l-15.8,22.5
	c-1.3,1.9-0.3,3.6,1.6,3.6h14.6c1.7,0.2,3.4-0.6,4.3-2.1l49.6-71.2c1.5-2.2,0.8-4.5-1.7-4.5h-13.8c-2.4,0-3.3,0.9-4.7,2.9L367,110
	l-9.2-30.1C357.2,78.1,355.9,77.1,353.4,77.1L353.4,77.1z"/>
<path class="st0" d="M459.6,48.2c13.1,0,25.1,7.1,23.5,24.8c-2,21-13.2,32.6-31,32.7h-15.5c-2.2,0-3.3,1.8-3.9,5.5l-3,19.1
	c-0.5,2.9-1.9,4.3-4.1,4.3h-14.4c-2.3,0-3.1-1.5-2.6-4.8l11.9-76.5c0.6-3.8,2-5.2,4.6-5.2L459.6,48.2L459.6,48.2z M436.1,89.2h11.8
	c7.3-0.3,12.2-5.4,12.7-14.5c0.3-5.7-3.5-9.7-9.6-9.7l-11.1,0L436.1,89.2L436.1,89.2z M522.3,128.7c1.3-1.2,2.7-1.8,2.5-0.3
	l-0.5,3.5c-0.2,1.9,0.5,2.8,2.2,2.8h12.8c2.2,0,3.2-0.9,3.7-4.2l7.9-49.6c0.4-2.5-0.2-3.7-2.1-3.7h-14.1c-1.3,0-1.9,0.7-2.2,2.6
	l-0.5,3c-0.3,1.6-1,1.9-1.7,0.3c-2.4-5.7-8.5-8.2-17-8c-19.8,0.4-33.1,15.4-34.5,34.7c-1.1,14.9,9.6,26.6,23.6,26.6
	C512.6,136.5,517.2,133.5,522.3,128.7L522.3,128.7L522.3,128.7z M511.5,121.1c-8.5,0-14.4-6.8-13.2-15.1s9.2-15.1,17.7-15.1
	c8.5,0,14.4,6.8,13.2,15.1S520.1,121.1,511.5,121.1L511.5,121.1z M570.7,134.8h-14.8c-1,0-1.8-0.7-1.8-1.7c0-0.1,0-0.2,0-0.3
	l13-82.4c0.3-1.2,1.3-2,2.5-2h14.8c1,0,1.8,0.7,1.8,1.7c0,0.1,0,0.2,0,0.3l-13,82.4C572.9,134,571.9,134.9,570.7,134.8L570.7,134.8z
	"/>
<path class="st1" d="M44.5,17.6h38.8c10.9,0,23.9,0.4,32.5,8c5.8,5.1,8.8,13.2,8.1,22c-2.4,29.6-20.1,46.2-43.9,46.2H61
	c-3.3,0-5.4,2.2-6.3,8l-5.3,34c-0.4,2.2-1.3,3.5-3,3.7H22.4c-2.6,0-3.6-2-2.9-6.4l17.2-109C37.4,19.7,39.8,17.6,44.5,17.6z"/>
<path class="st2" d="M55.2,98.4L62,55.5c0.6-3.8,2.6-5.6,6.8-5.6h38.7c6.4,0,11.6,1,15.7,2.9c-3.9,26.4-20.9,41-43.3,41H60.8
	C58.2,93.8,56.3,95.1,55.2,98.4z"/>
</svg>
