<?xml version="1.0" standalone="no"?>
<!DOCTYPE svg PUBLIC "-//W3C//DTD SVG 20010904//EN"
 "http://www.w3.org/TR/2001/REC-SVG-20010904/DTD/svg10.dtd">
<svg version="1.0" xmlns="http://www.w3.org/2000/svg"
 width="400.000000pt" height="400.000000pt" viewBox="0 0 400.000000 400.000000"
 preserveAspectRatio="xMidYMid meet">
<metadata>
Created by potrace 1.14, written by Peter Selinger 2001-2017
</metadata>
<g transform="translate(0.000000,400.000000) scale(0.100000,-0.100000)"
fill="#000000" stroke="none">
<path d="M1727 3695 c-168 -157 -309 -285 -312 -285 -3 0 -5 68 -5 150 l0 150
-323 0 -323 0 4 -458 5 -459 -272 -248 c-149 -137 -268 -252 -264 -256 43 -40
430 -369 435 -369 3 0 18 21 33 48 196 339 584 605 1032 704 81 18 130 22 283
22 209 0 291 -12 475 -71 344 -110 614 -310 829 -616 27 -37 52 -67 57 -65 13
5 389 358 389 366 0 4 -134 137 -297 297 -164 159 -549 534 -855 832 -306 299
-563 543 -571 543 -7 0 -151 -128 -320 -285z m743 -175 c734 -711 1040 -1014
1040 -1029 0 -9 32 -48 70 -86 39 -38 70 -74 70 -80 0 -6 -31 -42 -70 -80 -38
-38 -70 -77 -70 -85 0 -15 -20 -36 -106 -113 l-31 -28 -26 40 c-53 80 -177
218 -253 282 -267 224 -558 351 -903 395 -293 37 -621 -26 -909 -176 -82 -42
-118 -56 -123 -48 -5 8 -33 -5 -91 -44 -150 -101 -285 -232 -380 -371 -45 -66
-35 -68 -141 29 -56 51 -67 67 -67 94 l0 32 62 -53 c35 -29 72 -61 84 -71 20
-18 21 -17 83 62 232 299 612 531 996 609 286 58 560 40 845 -55 295 -98 597
-304 779 -529 l58 -73 94 84 c52 47 95 88 97 92 2 8 -432 435 -928 912 -162
155 -363 351 -447 433 l-152 151 -23 -20 c-12 -10 -146 -134 -298 -274 -151
-140 -314 -290 -362 -334 l-88 -78 0 241 0 241 -195 0 -194 0 6 -433 6 -433
-28 -22 c-16 -13 -105 -91 -198 -175 -93 -84 -176 -156 -183 -160 -11 -6 -14
-1 -14 22 0 26 23 52 180 197 l180 167 0 444 0 443 160 0 c136 0 160 2 160 15
0 12 18 15 105 15 l105 0 2 -157 c1 -87 2 -170 1 -185 l-1 -28 33 28 c17 15
169 156 336 314 l304 287 45 -42 c25 -24 196 -189 380 -367z"/>
<path d="M1899 2550 c-490 -47 -916 -335 -1115 -754 -130 -275 -150 -602 -53
-888 144 -429 529 -756 1012 -860 136 -29 426 -32 560 -5 282 57 525 185 723
382 56 55 125 136 154 179 73 110 146 266 177 383 25 92 27 112 27 303 0 226
-9 275 -77 444 -148 368 -488 663 -888 769 -172 46 -356 63 -520 47z m398 -70
c352 -70 654 -262 837 -533 l56 -82 0 -147 c0 -103 5 -167 17 -215 22 -92 22
-330 -1 -431 -11 -50 -16 -121 -16 -219 l0 -145 -47 -72 c-62 -94 -238 -269
-338 -334 -345 -228 -774 -291 -1177 -172 -40 12 -112 40 -160 62 l-88 41 0
66 -1 66 -64 44 c-180 121 -342 325 -414 521 -44 121 -51 171 -51 363 0 168 2
193 25 272 46 156 100 258 213 398 54 67 200 197 261 233 29 17 31 21 31 81
l0 63 68 34 c82 41 238 92 340 110 122 22 389 20 509 -4z"/>
<path d="M1824 2304 c-589 -99 -1002 -616 -920 -1151 59 -386 353 -713 756
-841 130 -41 232 -55 385 -54 206 3 361 40 540 129 338 169 556 485 582 843
10 153 -29 344 -100 485 -186 371 -594 608 -1041 604 -66 -1 -157 -7 -202 -15z
m-114 -441 c36 -21 77 -77 90 -124 26 -91 -42 -203 -139 -229 -114 -31 -231
62 -231 184 0 82 38 141 115 178 47 22 119 19 165 -9z m415 8 c111 -50 152
-193 81 -286 -72 -93 -187 -107 -272 -33 -48 42 -67 83 -67 144 0 138 137 230
258 175z m430 0 c111 -50 152 -193 81 -286 -72 -93 -187 -107 -272 -33 -48 42
-67 83 -67 144 0 139 136 231 258 175z m-845 -438 c36 -21 77 -77 90 -124 26
-91 -42 -203 -139 -229 -114 -31 -231 62 -231 184 0 82 38 141 115 178 47 22
119 19 165 -9z m436 -3 c51 -32 88 -102 88 -165 -1 -60 -21 -101 -68 -143
-121 -106 -306 -20 -306 142 0 82 38 141 115 178 50 23 121 18 171 -12z m409
11 c146 -66 155 -263 16 -345 -40 -23 -125 -25 -166 -3 -69 35 -108 99 -108
173 0 139 136 231 258 175z m-855 -441 c48 -24 85 -71 99 -127 31 -114 -62
-233 -182 -233 -114 0 -193 86 -185 201 10 138 148 220 268 159z m436 -1 c27
-13 54 -37 73 -66 82 -124 -6 -293 -152 -293 -89 0 -161 55 -183 139 -41 160
115 292 262 220z m430 0 c64 -30 104 -96 104 -170 0 -105 -81 -189 -183 -189
-90 0 -160 53 -182 138 -42 161 114 293 261 221z"/>
<path d="M1544 1841 c-48 -22 -80 -59 -95 -112 -10 -32 -9 -46 5 -83 48 -126
211 -151 299 -46 71 84 27 216 -82 249 -53 15 -79 14 -127 -8z m158 -48 c50
-45 61 -107 28 -160 -49 -81 -174 -85 -225 -6 -23 34 -24 103 -2 137 42 63
145 78 199 29z"/>
<path d="M1994 1849 c-42 -12 -101 -79 -110 -124 -25 -132 130 -235 256 -170
34 18 56 44 75 89 52 123 -81 246 -221 205z m158 -68 c37 -41 45 -89 22 -136
-44 -94 -180 -101 -234 -12 -61 99 38 216 155 185 17 -4 42 -21 57 -37z"/>
<path d="M2424 1849 c-42 -12 -101 -79 -110 -124 -30 -163 202 -260 305 -129
103 131 -29 301 -195 253z m137 -50 c77 -53 70 -172 -12 -215 -111 -57 -240
57 -185 164 21 41 52 64 94 72 45 7 69 3 103 -21z"/>
<path d="M1544 1411 c-75 -34 -113 -109 -94 -182 36 -133 212 -167 304 -59 70
84 26 216 -83 249 -53 15 -79 14 -127 -8z m158 -48 c50 -45 61 -107 28 -160
-49 -81 -174 -85 -225 -6 -23 34 -24 103 -2 137 42 63 145 78 199 29z"/>
<path d="M1992 1423 c-36 -7 -98 -73 -112 -120 -32 -106 78 -218 191 -197 108
21 168 110 140 206 -26 84 -117 130 -219 111z m132 -54 c56 -44 70 -110 36
-166 -47 -79 -174 -85 -222 -11 -60 92 0 198 113 198 32 0 55 -7 73 -21z"/>
<path d="M2424 1419 c-42 -12 -101 -79 -110 -124 -30 -163 202 -260 305 -129
103 131 -29 301 -195 253z m149 -56 c65 -58 52 -169 -24 -209 -111 -57 -240
57 -185 164 40 78 146 101 209 45z"/>
<path d="M1550 979 c-74 -30 -120 -116 -100 -189 49 -182 341 -146 340 42 -1
107 -135 189 -240 147z m126 -38 c96 -44 95 -186 -1 -227 -49 -20 -87 -17
-126 9 -90 60 -82 180 15 223 42 18 64 17 112 -5z"/>
<path d="M1965 967 c-53 -29 -88 -95 -82 -154 9 -84 81 -143 174 -143 96 0
167 68 167 161 0 123 -146 200 -259 136z m165 -35 c14 -10 33 -35 44 -56 16
-32 17 -44 8 -75 -34 -112 -181 -134 -242 -36 -71 115 79 248 190 167z"/>
<path d="M2395 967 c-53 -29 -88 -95 -82 -154 9 -84 81 -143 174 -143 96 0
167 68 167 161 0 123 -146 200 -259 136z m165 -35 c14 -10 33 -35 44 -56 51
-103 -71 -212 -179 -160 -43 20 -75 66 -75 107 0 105 126 170 210 109z"/>
</g>
</svg>
