<?xml version="1.0" encoding="utf-8"?>
<!-- Generator: Adobe Illustrator 24.0.2, SVG Export Plug-In . SVG Version: 6.00 Build 0)  -->
<svg version="1.1" xmlns="http://www.w3.org/2000/svg" xmlns:xlink="http://www.w3.org/1999/xlink" x="0px" y="0px" width="220px"
	 height="55px" viewBox="0 0 220 55" style="enable-background:new 0 0 220 55;" xml:space="preserve">
<style type="text/css">
	.st0{display:none;}
	.st1{display:inline;}
	.st2{fill:#183B64;}
	.st3{enable-background:new    ;}
	.st4{fill:#183B64;stroke:#183B64;stroke-width:0.5;stroke-linecap:round;stroke-linejoin:round;stroke-miterlimit:10;}
	.st5{fill:url(#SVGID_1_);}
	.st6{fill:url(#SVGID_2_);}
	.st7{fill:#183A64;}
	.st8{fill:url(#SVGID_3_);}
	.st9{fill:url(#SVGID_4_);}
	.st10{fill:url(#SVGID_5_);stroke:#183A64;stroke-width:8.660597e-02;stroke-miterlimit:10;}
	.st11{fill:url(#SVGID_6_);stroke:#183A64;stroke-width:8.660597e-02;stroke-miterlimit:10;}
	.st12{fill:url(#SVGID_7_);stroke:#183A64;stroke-width:0.4386;stroke-miterlimit:10;}
	.st13{fill:url(#SVGID_8_);stroke:#183A64;stroke-width:8.660597e-02;stroke-miterlimit:10;}
	.st14{fill:url(#SVGID_9_);stroke:#183A64;stroke-width:8.660597e-02;stroke-miterlimit:10;}
	.st15{fill:url(#SVGID_10_);stroke:#183A64;stroke-width:8.660597e-02;stroke-miterlimit:10;}
	.st16{fill:url(#SVGID_11_);stroke:#183A64;stroke-width:0.4386;stroke-miterlimit:10;}
	.st17{fill:url(#SVGID_12_);stroke:#183A64;stroke-width:8.660597e-02;stroke-miterlimit:10;}
	.st18{fill:url(#SVGID_13_);stroke:#183A64;stroke-width:0.4386;stroke-miterlimit:10;}
	.st19{fill:url(#SVGID_14_);stroke:#183A64;stroke-width:0.4386;stroke-miterlimit:10;}
	.st20{fill:url(#SVGID_15_);stroke:#183A64;stroke-width:0.4386;stroke-miterlimit:10;}
	.st21{fill:url(#SVGID_16_);stroke:#183A64;stroke-width:0.4386;stroke-miterlimit:10;}
	.st22{fill:url(#SVGID_17_);stroke:#183A64;stroke-width:8.582482e-02;stroke-miterlimit:10;}
	.st23{fill:url(#SVGID_18_);stroke:#183A64;stroke-width:0.4386;stroke-miterlimit:10;}
	.st24{fill:url(#SVGID_19_);stroke:#183A64;stroke-width:8.660597e-02;stroke-miterlimit:10;}
	.st25{fill:url(#SVGID_20_);stroke:#183A64;stroke-width:0.4386;stroke-miterlimit:10;}
	.st26{fill:url(#SVGID_21_);stroke:#183A64;stroke-width:8.660597e-02;stroke-miterlimit:10;}
	.st27{fill:url(#SVGID_22_);stroke:#183A64;stroke-width:0.4386;stroke-miterlimit:10;}
</style>
<g id="Layer_1">
	<g id="Layer_2_1_" class="st0">
		<g class="st1">
			<g>
				<g>
					<g>
						<path class="st2" d="M27.4,24.2H31v6l2.6,2.6c2.5-2.4,4-5.8,4-9.5c0-7.4-5.9-13.3-13.3-13.3C17,10,11,16,11,23.3
							c0,3.7,1.5,7.1,4,9.5l9.3-9.3l3.1,3.1V24.2z M42.1,32.3c-1,1.9-2.3,3.7-3.8,5.2l0,0L33.8,42l-9.4-9.4l-4.9,4.9l9.4,9.4
							l-4.6,4.6l-14-14l0,0c-3.6-3.6-5.9-8.6-5.9-14.1c0.2-11,9-19.9,20-19.9c10.9,0,19.8,8.9,19.8,19.9
							C44.2,26.6,43.4,29.6,42.1,32.3z"/>
					</g>
				</g>
			</g>
		</g>
	</g>
	<g class="st3">
		<path class="st4" d="M56.5,36.1c-1.3-0.7-2.1-1.6-2.6-2.8c-0.1-0.2-0.1-0.4-0.1-0.5c0-0.2,0.1-0.5,0.3-0.6
			c0.2-0.2,0.4-0.3,0.7-0.4c0,0,0.1,0,0.2,0c0.3,0,0.5,0.1,0.7,0.2c0.2,0.2,0.4,0.4,0.5,0.6c0.3,0.6,0.9,1.2,1.7,1.6
			c0.8,0.4,1.8,0.6,2.8,0.6c1.2,0,2.2-0.3,3-0.8c0.8-0.6,1.2-1.3,1.2-2.3c0-0.9-0.4-1.7-1.1-2.3c-0.7-0.6-1.8-1-3.2-1.2
			c-2-0.2-3.5-0.8-4.7-1.7c-1.1-1-1.7-2.2-1.7-3.6c0-1,0.3-1.9,0.9-2.7s1.4-1.3,2.4-1.7c1-0.4,2.2-0.6,3.4-0.6
			c1.4,0,2.5,0.3,3.5,0.8c0.9,0.6,1.7,1.4,2.4,2.4c0.2,0.3,0.3,0.6,0.3,0.9c0,0.4-0.2,0.6-0.5,0.9C66.6,23,66.4,23,66.2,23
			c-0.2,0-0.5-0.1-0.7-0.2c-0.2-0.1-0.4-0.3-0.5-0.5c-0.4-0.7-1-1.3-1.6-1.6c-0.6-0.4-1.5-0.6-2.5-0.6c-1.2,0-2.2,0.2-3,0.7
			c-0.8,0.5-1.1,1.2-1.1,2.1c0,0.8,0.3,1.5,1,2.1s1.9,0.9,3.6,1.1c1.9,0.2,3.4,0.8,4.5,1.7c1.1,1,1.6,2.2,1.6,3.8
			c0,1.2-0.3,2.1-0.9,3s-1.5,1.4-2.5,1.8c-1,0.4-2.1,0.6-3.3,0.6C59.2,37.1,57.8,36.8,56.5,36.1z"/>
		<path class="st4" d="M82.6,30.9c-0.2,0.2-0.5,0.3-0.8,0.3h-9.1c0.2,1.1,0.7,2,1.5,2.7c0.8,0.7,1.9,1,3.1,1c0.5,0,1-0.1,1.5-0.3
			c0.5-0.2,0.9-0.4,1.3-0.6c0.2-0.2,0.5-0.3,0.8-0.3s0.5,0.1,0.7,0.2c0.3,0.2,0.4,0.5,0.4,0.8c0,0.3-0.1,0.5-0.4,0.7
			c-0.5,0.4-1.2,0.8-2,1.1C78.8,36.8,78,37,77.3,37c-1.3,0-2.5-0.3-3.5-0.9c-1-0.6-1.9-1.4-2.4-2.4s-0.9-2.2-0.9-3.4
			s0.3-2.4,0.8-3.4c0.6-1,1.3-1.8,2.3-2.4c1-0.6,2.1-0.9,3.3-0.9c1.2,0,2.3,0.3,3.2,0.8c0.9,0.5,1.6,1.3,2.1,2.3
			c0.5,1,0.7,2.1,0.7,3.4C82.9,30.4,82.8,30.7,82.6,30.9z M74,26.7c-0.7,0.6-1.2,1.5-1.4,2.6h8c-0.1-1.1-0.5-1.9-1.2-2.6
			c-0.7-0.6-1.5-1-2.6-1C75.7,25.7,74.8,26,74,26.7z"/>
		<path class="st4" d="M87.2,36.3c-0.6-0.4-1-0.9-1.3-1.6c-0.3-0.7-0.5-1.4-0.5-2.3V19.3c0-0.4,0.1-0.6,0.3-0.9
			c0.2-0.2,0.5-0.3,0.9-0.3c0.4,0,0.6,0.1,0.9,0.3c0.2,0.2,0.3,0.5,0.3,0.9v13.1c0,0.6,0.1,1.1,0.3,1.5c0.2,0.4,0.5,0.6,0.9,0.6h0.6
			c0.3,0,0.6,0.1,0.8,0.3c0.2,0.2,0.3,0.5,0.3,0.9c0,0.4-0.2,0.6-0.5,0.9c-0.3,0.2-0.7,0.3-1.2,0.3h0C88.4,36.9,87.8,36.7,87.2,36.3
			z"/>
		<path class="st4" d="M96.7,21.2c-0.5,0.6-0.8,1.4-0.8,2.4v0.6h2.4c0.3,0,0.6,0.1,0.8,0.3c0.2,0.2,0.3,0.4,0.3,0.8
			c0,0.3-0.1,0.5-0.3,0.7c-0.2,0.2-0.5,0.3-0.8,0.3h-2.4v9.4c0,0.4-0.1,0.7-0.3,0.9c-0.2,0.2-0.5,0.3-0.9,0.3
			c-0.3,0-0.6-0.1-0.8-0.3c-0.2-0.2-0.3-0.5-0.3-0.9v-9.4h-1c-0.3,0-0.6-0.1-0.8-0.3c-0.2-0.2-0.3-0.4-0.3-0.7
			c0-0.3,0.1-0.6,0.3-0.8c0.2-0.2,0.5-0.3,0.8-0.3h1v-0.4c0-1.1,0.2-2.1,0.7-3s1.1-1.5,1.9-2c0.8-0.5,1.8-0.7,2.8-0.7
			c0.4,0,0.6,0.1,0.9,0.3c0.2,0.2,0.3,0.5,0.3,0.8c0,0.3-0.1,0.6-0.3,0.8c-0.2,0.2-0.5,0.3-0.9,0.3C98,20.3,97.2,20.6,96.7,21.2z"/>
		<path class="st4" d="M105.9,35.8c-1.4-0.8-2.5-2-3.3-3.5c-0.8-1.5-1.2-3.1-1.2-4.9c0-1.8,0.4-3.4,1.2-4.8c0.8-1.5,1.9-2.6,3.3-3.5
			c1.4-0.9,3-1.3,4.7-1.3c1.2,0,2.3,0.2,3.2,0.5c0.9,0.3,1.8,0.8,2.7,1.6c0.2,0.1,0.3,0.3,0.4,0.4c0.1,0.2,0.1,0.3,0.1,0.5
			c0,0.3-0.1,0.6-0.3,0.8c-0.2,0.2-0.5,0.3-0.8,0.3s-0.6-0.1-0.8-0.3c-0.7-0.6-1.3-1-1.9-1.2s-1.4-0.4-2.4-0.4c-1.2,0-2.4,0.3-3.4,1
			c-1,0.7-1.9,1.5-2.5,2.7c-0.6,1.1-0.9,2.4-0.9,3.7c0,1.3,0.3,2.6,0.9,3.7c0.6,1.1,1.4,2,2.5,2.7c1,0.7,2.2,1,3.4,1
			c1.5,0,3-0.5,4.4-1.6c0.3-0.2,0.5-0.3,0.8-0.3c0.3,0,0.6,0.1,0.8,0.3s0.3,0.5,0.3,0.9c0,0.3-0.1,0.6-0.4,0.9
			c-1.7,1.4-3.7,2.1-5.9,2.1C108.9,37.1,107.4,36.7,105.9,35.8z"/>
		<path class="st4" d="M130.1,24.3c0.9,0.5,1.6,1.2,2.1,2.1s0.7,2,0.7,3.3v5.9c0,0.4-0.1,0.6-0.3,0.9c-0.2,0.2-0.5,0.3-0.9,0.3
			c-0.4,0-0.6-0.1-0.9-0.3c-0.2-0.2-0.3-0.5-0.3-0.9v-5.9c0-1.3-0.3-2.3-1-2.9c-0.7-0.7-1.6-1-2.8-1c-0.7,0-1.3,0.1-1.8,0.4
			c-0.6,0.3-1,0.6-1.3,1.1c-0.3,0.5-0.5,1-0.5,1.6v6.8c0,0.4-0.1,0.6-0.3,0.9c-0.2,0.2-0.5,0.3-0.9,0.3c-0.4,0-0.6-0.1-0.9-0.3
			c-0.2-0.2-0.3-0.5-0.3-0.9V19.4c0-0.4,0.1-0.7,0.3-0.9c0.2-0.2,0.5-0.3,0.9-0.3c0.4,0,0.7,0.1,0.9,0.3c0.2,0.2,0.3,0.5,0.3,0.9
			v5.9c0.5-0.5,1.1-0.9,1.8-1.2c0.7-0.3,1.5-0.4,2.3-0.4C128.3,23.6,129.3,23.9,130.1,24.3z"/>
		<path class="st4" d="M148.5,30.9c-0.2,0.2-0.5,0.3-0.8,0.3h-9.1c0.2,1.1,0.7,2,1.5,2.7c0.8,0.7,1.9,1,3.1,1c0.5,0,1-0.1,1.5-0.3
			c0.5-0.2,0.9-0.4,1.3-0.6c0.2-0.2,0.5-0.3,0.8-0.3s0.5,0.1,0.7,0.2c0.3,0.2,0.4,0.5,0.4,0.8c0,0.3-0.1,0.5-0.4,0.7
			c-0.5,0.4-1.2,0.8-2,1.1c-0.8,0.3-1.6,0.4-2.3,0.4c-1.3,0-2.5-0.3-3.5-0.9c-1-0.6-1.9-1.4-2.4-2.4c-0.6-1-0.9-2.2-0.9-3.4
			s0.3-2.4,0.8-3.4c0.6-1,1.3-1.8,2.3-2.4c1-0.6,2.1-0.9,3.3-0.9c1.2,0,2.3,0.3,3.2,0.8c0.9,0.5,1.6,1.3,2.1,2.3
			c0.5,1,0.7,2.1,0.7,3.4C148.8,30.4,148.7,30.7,148.5,30.9z M140,26.7c-0.7,0.6-1.2,1.5-1.4,2.6h8c-0.1-1.1-0.5-1.9-1.2-2.6
			c-0.7-0.6-1.5-1-2.6-1C141.7,25.7,140.7,26,140,26.7z"/>
		<path class="st4" d="M154,36.1c-1-0.6-1.8-1.4-2.4-2.4c-0.6-1-0.9-2.1-0.9-3.4c0-1.3,0.3-2.4,0.8-3.4c0.6-1,1.3-1.8,2.3-2.4
			c1-0.6,2.1-0.9,3.4-0.9c1.9,0,3.5,0.7,4.7,2.2c0.2,0.2,0.2,0.4,0.2,0.6c0,0.4-0.2,0.6-0.5,0.9c-0.2,0.1-0.3,0.2-0.6,0.2
			c-0.4,0-0.7-0.1-0.9-0.4c-0.4-0.4-0.8-0.7-1.3-0.9s-1-0.3-1.6-0.3c-1.2,0-2.2,0.4-3,1.2c-0.8,0.8-1.2,1.9-1.2,3.3
			c0,0.9,0.2,1.6,0.5,2.3c0.4,0.7,0.9,1.2,1.5,1.6c0.6,0.4,1.4,0.6,2.2,0.6c1.1,0,2-0.3,2.6-0.8c0.3-0.2,0.6-0.3,0.9-0.3
			c0.2,0,0.4,0.1,0.6,0.2c0.3,0.3,0.5,0.5,0.5,0.9c0,0.2-0.1,0.5-0.3,0.6c-1.2,1.1-2.6,1.6-4.3,1.6C156.1,37,155,36.7,154,36.1z"/>
		<path class="st4" d="M176.1,35.9c0,0.4-0.1,0.6-0.4,0.9c-0.2,0.2-0.5,0.3-0.8,0.3c-0.4,0-0.6-0.1-0.9-0.4l-4.6-5.6l-1.2,1.1v3.7
			c0,0.4-0.1,0.6-0.3,0.9c-0.2,0.2-0.5,0.3-0.9,0.3c-0.4,0-0.6-0.1-0.9-0.3c-0.2-0.2-0.3-0.5-0.3-0.9V19.3c0-0.4,0.1-0.6,0.3-0.9
			c0.2-0.2,0.5-0.3,0.9-0.3c0.4,0,0.6,0.1,0.9,0.3c0.2,0.2,0.3,0.5,0.3,0.9v9.8l5.8-5.2c0.2-0.2,0.5-0.3,0.7-0.3
			c0.3,0,0.6,0.1,0.8,0.4c0.2,0.2,0.3,0.5,0.3,0.7c0,0.3-0.1,0.6-0.4,0.8l-4.4,3.9l4.7,5.7C176,35.3,176.1,35.6,176.1,35.9z"/>
		<path class="st4" d="M180.1,36.5c-0.2-0.2-0.4-0.5-0.4-0.9V19.4c0-0.4,0.1-0.7,0.4-0.9s0.5-0.3,0.9-0.3c0.4,0,0.7,0.1,0.9,0.3
			c0.2,0.2,0.3,0.5,0.3,0.9v16.2c0,0.4-0.1,0.6-0.3,0.9c-0.2,0.2-0.5,0.4-0.9,0.4C180.7,36.9,180.4,36.8,180.1,36.5z"/>
		<path class="st4" d="M196.3,24.3c0.9,0.5,1.6,1.2,2.1,2.1s0.7,2,0.7,3.3v5.9c0,0.4-0.1,0.6-0.3,0.9c-0.2,0.2-0.5,0.3-0.9,0.3
			c-0.4,0-0.6-0.1-0.9-0.3c-0.2-0.2-0.3-0.5-0.3-0.9v-5.9c0-1.3-0.3-2.3-1-2.9c-0.7-0.7-1.6-1-2.8-1c-0.7,0-1.3,0.1-1.8,0.4
			c-0.6,0.3-1,0.6-1.3,1.1c-0.3,0.5-0.5,1-0.5,1.6v6.8c0,0.4-0.1,0.6-0.3,0.9c-0.2,0.2-0.5,0.3-0.9,0.3c-0.4,0-0.6-0.1-0.9-0.3
			c-0.2-0.2-0.3-0.5-0.3-0.9V25c0-0.4,0.1-0.7,0.3-0.9c0.2-0.2,0.5-0.3,0.9-0.3c0.4,0,0.7,0.1,0.9,0.3c0.2,0.2,0.3,0.5,0.3,0.9v0.3
			c0.5-0.5,1.1-0.9,1.8-1.2c0.7-0.3,1.5-0.4,2.3-0.4C194.5,23.6,195.5,23.9,196.3,24.3z"/>
		<path class="st4" d="M204.9,36.5c-1-0.3-1.7-0.8-2.3-1.3c-0.2-0.2-0.3-0.5-0.3-0.7c0-0.4,0.2-0.7,0.5-0.9c0.3-0.2,0.6-0.3,0.8-0.3
			c0.3,0,0.6,0.1,0.9,0.4c0.3,0.3,0.8,0.6,1.4,0.9c0.6,0.2,1.3,0.4,1.9,0.4c0.9,0,1.6-0.2,2.1-0.5s0.8-0.7,0.8-1.2
			c0-0.5-0.2-0.9-0.7-1.2s-1.3-0.6-2.5-0.8c-3.1-0.6-4.6-1.9-4.6-3.8c0-0.8,0.2-1.4,0.7-2s1.1-1,1.8-1.2c0.8-0.3,1.6-0.4,2.4-0.4
			c1,0,2,0.2,2.8,0.5s1.5,0.8,2,1.4c0.2,0.3,0.3,0.5,0.3,0.8c0,0.3-0.1,0.5-0.4,0.7c-0.2,0.1-0.4,0.2-0.7,0.2
			c-0.4,0-0.8-0.2-1.1-0.5c-0.4-0.4-0.8-0.6-1.3-0.8s-1-0.2-1.6-0.2c-0.7,0-1.3,0.1-1.8,0.4c-0.5,0.2-0.7,0.6-0.7,1
			c0,0.3,0.1,0.6,0.2,0.8c0.2,0.2,0.5,0.4,0.9,0.6s1.1,0.4,1.9,0.5c1.7,0.4,3,0.8,3.7,1.5c0.7,0.6,1.1,1.4,1.1,2.4
			c0,0.7-0.2,1.4-0.6,2c-0.4,0.6-1,1.1-1.8,1.4S209.1,37,208,37S205.9,36.8,204.9,36.5z"/>
	</g>
</g>
<g id="Layer_2">
	<g>
		<g>
			<path class="st2" d="M5.9,27.8c3.5-6.1,11.1-10.6,18.9-10.5c4.1,0.1,8.3,1.4,11.7,3.6c2.9,1.9,4.8,3.9,6.5,6.5l4.6-4.3L24.9,1
				l-9.3,8.6l-0.1-5.1H7.9L8,17l-7.1,6.4L5.9,27.8z"/>
			<linearGradient id="SVGID_1_" gradientUnits="userSpaceOnUse" x1="0.8607" y1="14.4098" x2="47.7713" y2="14.4098">
				<stop  offset="0" style="stop-color:#808083"/>
				<stop  offset="4.175627e-02" style="stop-color:#969698"/>
				<stop  offset="8.760553e-02" style="stop-color:#A6A6A8"/>
				<stop  offset="0.139" style="stop-color:#B0B0B1"/>
				<stop  offset="0.2071" style="stop-color:#B3B3B4"/>
				<stop  offset="0.3754" style="stop-color:#E0E0E0"/>
				<stop  offset="0.5081" style="stop-color:#FFFFFF"/>
				<stop  offset="0.5559" style="stop-color:#F8F8F9"/>
				<stop  offset="0.6245" style="stop-color:#E5E6E6"/>
				<stop  offset="0.7051" style="stop-color:#C6C7C9"/>
				<stop  offset="0.7747" style="stop-color:#A6A7AA"/>
				<stop  offset="0.8575" style="stop-color:#B4B6B8"/>
				<stop  offset="0.9283" style="stop-color:#BABCBE"/>
				<stop  offset="0.999" style="stop-color:#919395"/>
			</linearGradient>
			<path class="st5" d="M24.9,2.6L46,23.1l-2.7,2.5c-1.7-2.3-3.5-4.1-6.1-5.7c-3.7-2.4-8-3.7-12.3-3.8l-0.3,0
				c-7.4,0-14.9,4-18.9,9.9l-3-2.6l6.1-5.5l0.4-0.4l0-0.5L9.1,5.7h5.3l0,3.9l0,2.7l2-1.8L24.9,2.6 M24.9,1l-9.3,8.6l-0.1-5.1H7.9
				L8,17l-7.1,6.4l5.1,4.4c3.4-6,10.9-10.5,18.6-10.5c0.1,0,0.2,0,0.3,0c4.1,0.1,8.3,1.4,11.7,3.6c2.9,1.9,4.8,3.9,6.5,6.5l4.6-4.3
				L24.9,1L24.9,1z"/>
			<linearGradient id="SVGID_2_" gradientUnits="userSpaceOnUse" x1="0.8607" y1="14.4098" x2="47.7713" y2="14.4098">
				<stop  offset="0" style="stop-color:#79797A"/>
				<stop  offset="8.866060e-02" style="stop-color:#7D7D7E"/>
				<stop  offset="0.1835" style="stop-color:#8A8A8B"/>
				<stop  offset="0.2812" style="stop-color:#A0A0A0"/>
				<stop  offset="0.3808" style="stop-color:#BDBDBE"/>
				<stop  offset="0.481" style="stop-color:#E4E4E4"/>
				<stop  offset="0.5429" style="stop-color:#FFFFFF"/>
				<stop  offset="0.6095" style="stop-color:#FAFAFA"/>
				<stop  offset="0.692" style="stop-color:#EAEAEA"/>
				<stop  offset="0.7825" style="stop-color:#D1D1D1"/>
				<stop  offset="0.8308" style="stop-color:#C1C1C1"/>
				<stop  offset="0.8661" style="stop-color:#B9B9B9"/>
				<stop  offset="0.9202" style="stop-color:#A4A4A4"/>
				<stop  offset="0.9859" style="stop-color:#818182"/>
				<stop  offset="1" style="stop-color:#79797A"/>
			</linearGradient>
			<path class="st6" d="M24.9,1.6l22.2,21.5l-3.9,3.6c-1.7-2.6-3.7-4.5-6.4-6.2c-3.6-2.3-7.8-3.6-12-3.7l-0.3,0
				c-7.4,0-15.1,4.2-18.8,10.3l-4.2-3.7l6.7-6.1l0.2-0.1l0-0.2L8.3,5h6.7l0.1,4.7l0,1l0.8-0.7L24.9,1.6 M24.9,1l-9.3,8.6l-0.1-5.1
				H7.9L8,17l-7.1,6.4l5.1,4.4c3.4-6,10.9-10.5,18.6-10.5c0.1,0,0.2,0,0.3,0c4.1,0.1,8.3,1.4,11.7,3.6c2.9,1.9,4.8,3.9,6.5,6.5
				l4.6-4.3L24.9,1L24.9,1z"/>
			<path class="st7" d="M24.9,1l22.8,22.1l-4.6,4.3c-1.7-2.7-3.6-4.6-6.5-6.5c-3.4-2.2-7.6-3.5-11.7-3.6c-0.1,0-0.2,0-0.3,0
				c-7.7,0-15.2,4.5-18.6,10.5l-5.1-4.4L8,17L7.9,4.5h7.7l0.1,5.1L24.9,1 M24.9,0.3l-0.4,0.3l-8.4,7.8l0-3.9l0-0.5h-0.5H7.9H7.3
				l0,0.5l0.1,12.2L0.5,23L0,23.5l0.5,0.4l5.1,4.4l0.5,0.4l0.3-0.6c3.4-6,10.9-10.2,18.2-10.2l0.3,0c4,0.1,8,1.3,11.4,3.5
				c2.8,1.8,4.6,3.7,6.4,6.4l0.4,0.6l0.5-0.4l4.6-4.3l0.4-0.4l-0.4-0.4L25.3,0.6L24.9,0.3L24.9,0.3z"/>
		</g>
		<g>
			<ellipse class="st2" cx="24.7" cy="37.3" rx="18.1" ry="16.7"/>
			<linearGradient id="SVGID_3_" gradientUnits="userSpaceOnUse" x1="6.5798" y1="37.2811" x2="42.7342" y2="37.2811">
				<stop  offset="0" style="stop-color:#808083"/>
				<stop  offset="4.175627e-02" style="stop-color:#969698"/>
				<stop  offset="8.760553e-02" style="stop-color:#A6A6A8"/>
				<stop  offset="0.139" style="stop-color:#B0B0B1"/>
				<stop  offset="0.2071" style="stop-color:#B3B3B4"/>
				<stop  offset="0.3754" style="stop-color:#E0E0E0"/>
				<stop  offset="0.5081" style="stop-color:#FFFFFF"/>
				<stop  offset="0.5559" style="stop-color:#F8F8F9"/>
				<stop  offset="0.6245" style="stop-color:#E5E6E6"/>
				<stop  offset="0.7051" style="stop-color:#C6C7C9"/>
				<stop  offset="0.7747" style="stop-color:#A6A7AA"/>
				<stop  offset="0.8575" style="stop-color:#B4B6B8"/>
				<stop  offset="0.9283" style="stop-color:#BABCBE"/>
				<stop  offset="0.999" style="stop-color:#919395"/>
			</linearGradient>
			<path class="st8" d="M24.7,23.1c8.6,0,15.6,6.4,15.6,14.2s-7,14.2-15.6,14.2S9.1,45.1,9.1,37.3S16.1,23.1,24.7,23.1 M24.7,20.6
				c-10,0-18.1,7.5-18.1,16.7S14.7,54,24.7,54s18.1-7.5,18.1-16.7S34.6,20.6,24.7,20.6L24.7,20.6z"/>
			<path class="st7" d="M24.7,20.6c10,0,18.1,7.5,18.1,16.7S34.6,54,24.7,54S6.6,46.5,6.6,37.3S14.7,20.6,24.7,20.6 M24.7,19.9
				c-10.3,0-18.7,7.8-18.7,17.4s8.4,17.4,18.7,17.4s18.7-7.8,18.7-17.4S35,19.9,24.7,19.9L24.7,19.9z"/>
			<linearGradient id="SVGID_4_" gradientUnits="userSpaceOnUse" x1="6.5798" y1="37.2811" x2="42.7342" y2="37.2811">
				<stop  offset="0" style="stop-color:#79797A"/>
				<stop  offset="8.866060e-02" style="stop-color:#7D7D7E"/>
				<stop  offset="0.1835" style="stop-color:#8A8A8B"/>
				<stop  offset="0.2812" style="stop-color:#A0A0A0"/>
				<stop  offset="0.3808" style="stop-color:#BDBDBE"/>
				<stop  offset="0.481" style="stop-color:#E4E4E4"/>
				<stop  offset="0.5429" style="stop-color:#FFFFFF"/>
				<stop  offset="0.6095" style="stop-color:#FAFAFA"/>
				<stop  offset="0.692" style="stop-color:#EAEAEA"/>
				<stop  offset="0.7825" style="stop-color:#D1D1D1"/>
				<stop  offset="0.8308" style="stop-color:#C1C1C1"/>
				<stop  offset="0.8661" style="stop-color:#B9B9B9"/>
				<stop  offset="0.9202" style="stop-color:#A4A4A4"/>
				<stop  offset="0.9859" style="stop-color:#818182"/>
				<stop  offset="1" style="stop-color:#79797A"/>
			</linearGradient>
			<path class="st9" d="M24.7,22.2c9.1,0,16.4,6.8,16.4,15.1s-7.4,15.1-16.4,15.1S8.2,45.6,8.2,37.3S15.6,22.2,24.7,22.2 M24.7,20.6
				c-10,0-18.1,7.5-18.1,16.7S14.7,54,24.7,54s18.1-7.5,18.1-16.7S34.6,20.6,24.7,20.6L24.7,20.6z"/>
		</g>
		<ellipse class="st2" cx="24.5" cy="37.1" rx="13.5" ry="12.5"/>
		<linearGradient id="SVGID_5_" gradientUnits="userSpaceOnUse" x1="21.5692" y1="37.582" x2="28.4754" y2="37.5897">
			<stop  offset="0" style="stop-color:#808083"/>
			<stop  offset="4.175627e-02" style="stop-color:#969698"/>
			<stop  offset="8.760553e-02" style="stop-color:#A6A6A8"/>
			<stop  offset="0.139" style="stop-color:#B0B0B1"/>
			<stop  offset="0.2071" style="stop-color:#B3B3B4"/>
			<stop  offset="0.3754" style="stop-color:#E0E0E0"/>
			<stop  offset="0.5081" style="stop-color:#FFFFFF"/>
			<stop  offset="0.5559" style="stop-color:#F8F8F9"/>
			<stop  offset="0.6245" style="stop-color:#E5E6E6"/>
			<stop  offset="0.7051" style="stop-color:#C6C7C9"/>
			<stop  offset="0.7747" style="stop-color:#A6A7AA"/>
			<stop  offset="0.8575" style="stop-color:#B4B6B8"/>
			<stop  offset="0.9283" style="stop-color:#BABCBE"/>
			<stop  offset="0.999" style="stop-color:#919395"/>
		</linearGradient>
		<circle class="st10" cx="24.9" cy="37.6" r="2.7"/>
		<g>
			<linearGradient id="SVGID_6_" gradientUnits="userSpaceOnUse" x1="27.5123" y1="31.6537" x2="34.4184" y2="31.6613">
				<stop  offset="0" style="stop-color:#808083"/>
				<stop  offset="4.175627e-02" style="stop-color:#969698"/>
				<stop  offset="8.760553e-02" style="stop-color:#A6A6A8"/>
				<stop  offset="0.139" style="stop-color:#B0B0B1"/>
				<stop  offset="0.2071" style="stop-color:#B3B3B4"/>
				<stop  offset="0.3754" style="stop-color:#E0E0E0"/>
				<stop  offset="0.5081" style="stop-color:#FFFFFF"/>
				<stop  offset="0.5559" style="stop-color:#F8F8F9"/>
				<stop  offset="0.6245" style="stop-color:#E5E6E6"/>
				<stop  offset="0.7051" style="stop-color:#C6C7C9"/>
				<stop  offset="0.7747" style="stop-color:#A6A7AA"/>
				<stop  offset="0.8575" style="stop-color:#B4B6B8"/>
				<stop  offset="0.9283" style="stop-color:#BABCBE"/>
				<stop  offset="0.999" style="stop-color:#919395"/>
			</linearGradient>
			<circle class="st11" cx="30.9" cy="31.7" r="2.7"/>
			<linearGradient id="SVGID_7_" gradientUnits="userSpaceOnUse" x1="28.2121" y1="31.6544" x2="33.684" y2="31.6605">
				<stop  offset="0" style="stop-color:#808083"/>
				<stop  offset="4.175627e-02" style="stop-color:#969698"/>
				<stop  offset="8.760553e-02" style="stop-color:#A6A6A8"/>
				<stop  offset="0.139" style="stop-color:#B0B0B1"/>
				<stop  offset="0.2071" style="stop-color:#B3B3B4"/>
				<stop  offset="0.3754" style="stop-color:#E0E0E0"/>
				<stop  offset="0.5081" style="stop-color:#FFFFFF"/>
				<stop  offset="0.5559" style="stop-color:#F8F8F9"/>
				<stop  offset="0.6245" style="stop-color:#E5E6E6"/>
				<stop  offset="0.7051" style="stop-color:#C6C7C9"/>
				<stop  offset="0.7747" style="stop-color:#A6A7AA"/>
				<stop  offset="0.8575" style="stop-color:#B4B6B8"/>
				<stop  offset="0.9283" style="stop-color:#BABCBE"/>
				<stop  offset="0.999" style="stop-color:#919395"/>
			</linearGradient>
			<ellipse class="st12" cx="30.9" cy="31.7" rx="2.1" ry="2"/>
		</g>
		<linearGradient id="SVGID_8_" gradientUnits="userSpaceOnUse" x1="15.6459" y1="37.582" x2="22.5521" y2="37.5897">
			<stop  offset="0" style="stop-color:#808083"/>
			<stop  offset="4.175627e-02" style="stop-color:#969698"/>
			<stop  offset="8.760553e-02" style="stop-color:#A6A6A8"/>
			<stop  offset="0.139" style="stop-color:#B0B0B1"/>
			<stop  offset="0.2071" style="stop-color:#B3B3B4"/>
			<stop  offset="0.3754" style="stop-color:#E0E0E0"/>
			<stop  offset="0.5081" style="stop-color:#FFFFFF"/>
			<stop  offset="0.5559" style="stop-color:#F8F8F9"/>
			<stop  offset="0.6245" style="stop-color:#E5E6E6"/>
			<stop  offset="0.7051" style="stop-color:#C6C7C9"/>
			<stop  offset="0.7747" style="stop-color:#A6A7AA"/>
			<stop  offset="0.8575" style="stop-color:#B4B6B8"/>
			<stop  offset="0.9283" style="stop-color:#BABCBE"/>
			<stop  offset="0.999" style="stop-color:#919395"/>
		</linearGradient>
		<circle class="st13" cx="19" cy="37.6" r="2.7"/>
		<linearGradient id="SVGID_9_" gradientUnits="userSpaceOnUse" x1="27.5188" y1="37.582" x2="34.4249" y2="37.5897">
			<stop  offset="0" style="stop-color:#808083"/>
			<stop  offset="4.175627e-02" style="stop-color:#969698"/>
			<stop  offset="8.760553e-02" style="stop-color:#A6A6A8"/>
			<stop  offset="0.139" style="stop-color:#B0B0B1"/>
			<stop  offset="0.2071" style="stop-color:#B3B3B4"/>
			<stop  offset="0.3754" style="stop-color:#E0E0E0"/>
			<stop  offset="0.5081" style="stop-color:#FFFFFF"/>
			<stop  offset="0.5559" style="stop-color:#F8F8F9"/>
			<stop  offset="0.6245" style="stop-color:#E5E6E6"/>
			<stop  offset="0.7051" style="stop-color:#C6C7C9"/>
			<stop  offset="0.7747" style="stop-color:#A6A7AA"/>
			<stop  offset="0.8575" style="stop-color:#B4B6B8"/>
			<stop  offset="0.9283" style="stop-color:#BABCBE"/>
			<stop  offset="0.999" style="stop-color:#919395"/>
		</linearGradient>
		<circle class="st14" cx="30.9" cy="37.6" r="2.7"/>
		<g>
			<linearGradient id="SVGID_10_" gradientUnits="userSpaceOnUse" x1="21.6018" y1="31.6537" x2="28.5079" y2="31.6613">
				<stop  offset="0" style="stop-color:#808083"/>
				<stop  offset="4.175627e-02" style="stop-color:#969698"/>
				<stop  offset="8.760553e-02" style="stop-color:#A6A6A8"/>
				<stop  offset="0.139" style="stop-color:#B0B0B1"/>
				<stop  offset="0.2071" style="stop-color:#B3B3B4"/>
				<stop  offset="0.3754" style="stop-color:#E0E0E0"/>
				<stop  offset="0.5081" style="stop-color:#FFFFFF"/>
				<stop  offset="0.5559" style="stop-color:#F8F8F9"/>
				<stop  offset="0.6245" style="stop-color:#E5E6E6"/>
				<stop  offset="0.7051" style="stop-color:#C6C7C9"/>
				<stop  offset="0.7747" style="stop-color:#A6A7AA"/>
				<stop  offset="0.8575" style="stop-color:#B4B6B8"/>
				<stop  offset="0.9283" style="stop-color:#BABCBE"/>
				<stop  offset="0.999" style="stop-color:#919395"/>
			</linearGradient>
			<circle class="st15" cx="25" cy="31.7" r="2.7"/>
			<linearGradient id="SVGID_11_" gradientUnits="userSpaceOnUse" x1="22.3016" y1="31.6544" x2="27.7735" y2="31.6605">
				<stop  offset="0" style="stop-color:#808083"/>
				<stop  offset="4.175627e-02" style="stop-color:#969698"/>
				<stop  offset="8.760553e-02" style="stop-color:#A6A6A8"/>
				<stop  offset="0.139" style="stop-color:#B0B0B1"/>
				<stop  offset="0.2071" style="stop-color:#B3B3B4"/>
				<stop  offset="0.3754" style="stop-color:#E0E0E0"/>
				<stop  offset="0.5081" style="stop-color:#FFFFFF"/>
				<stop  offset="0.5559" style="stop-color:#F8F8F9"/>
				<stop  offset="0.6245" style="stop-color:#E5E6E6"/>
				<stop  offset="0.7051" style="stop-color:#C6C7C9"/>
				<stop  offset="0.7747" style="stop-color:#A6A7AA"/>
				<stop  offset="0.8575" style="stop-color:#B4B6B8"/>
				<stop  offset="0.9283" style="stop-color:#BABCBE"/>
				<stop  offset="0.999" style="stop-color:#919395"/>
			</linearGradient>
			<ellipse class="st16" cx="25" cy="31.7" rx="2.1" ry="2"/>
		</g>
		<g>
			<linearGradient id="SVGID_12_" gradientUnits="userSpaceOnUse" x1="15.6592" y1="31.6537" x2="22.5654" y2="31.6613">
				<stop  offset="0" style="stop-color:#808083"/>
				<stop  offset="4.175627e-02" style="stop-color:#969698"/>
				<stop  offset="8.760553e-02" style="stop-color:#A6A6A8"/>
				<stop  offset="0.139" style="stop-color:#B0B0B1"/>
				<stop  offset="0.2071" style="stop-color:#B3B3B4"/>
				<stop  offset="0.3754" style="stop-color:#E0E0E0"/>
				<stop  offset="0.5081" style="stop-color:#FFFFFF"/>
				<stop  offset="0.5559" style="stop-color:#F8F8F9"/>
				<stop  offset="0.6245" style="stop-color:#E5E6E6"/>
				<stop  offset="0.7051" style="stop-color:#C6C7C9"/>
				<stop  offset="0.7747" style="stop-color:#A6A7AA"/>
				<stop  offset="0.8575" style="stop-color:#B4B6B8"/>
				<stop  offset="0.9283" style="stop-color:#BABCBE"/>
				<stop  offset="0.999" style="stop-color:#919395"/>
			</linearGradient>
			<circle class="st17" cx="19" cy="31.7" r="2.7"/>
			<linearGradient id="SVGID_13_" gradientUnits="userSpaceOnUse" x1="16.359" y1="31.6544" x2="21.831" y2="31.6605">
				<stop  offset="0" style="stop-color:#808083"/>
				<stop  offset="4.175627e-02" style="stop-color:#969698"/>
				<stop  offset="8.760553e-02" style="stop-color:#A6A6A8"/>
				<stop  offset="0.139" style="stop-color:#B0B0B1"/>
				<stop  offset="0.2071" style="stop-color:#B3B3B4"/>
				<stop  offset="0.3754" style="stop-color:#E0E0E0"/>
				<stop  offset="0.5081" style="stop-color:#FFFFFF"/>
				<stop  offset="0.5559" style="stop-color:#F8F8F9"/>
				<stop  offset="0.6245" style="stop-color:#E5E6E6"/>
				<stop  offset="0.7051" style="stop-color:#C6C7C9"/>
				<stop  offset="0.7747" style="stop-color:#A6A7AA"/>
				<stop  offset="0.8575" style="stop-color:#B4B6B8"/>
				<stop  offset="0.9283" style="stop-color:#BABCBE"/>
				<stop  offset="0.999" style="stop-color:#919395"/>
			</linearGradient>
			<ellipse class="st18" cx="19" cy="31.7" rx="2.1" ry="2"/>
		</g>
		<linearGradient id="SVGID_14_" gradientUnits="userSpaceOnUse" x1="28.2186" y1="37.5828" x2="33.6905" y2="37.5888">
			<stop  offset="0" style="stop-color:#808083"/>
			<stop  offset="4.175627e-02" style="stop-color:#969698"/>
			<stop  offset="8.760553e-02" style="stop-color:#A6A6A8"/>
			<stop  offset="0.139" style="stop-color:#B0B0B1"/>
			<stop  offset="0.2071" style="stop-color:#B3B3B4"/>
			<stop  offset="0.3754" style="stop-color:#E0E0E0"/>
			<stop  offset="0.5081" style="stop-color:#FFFFFF"/>
			<stop  offset="0.5559" style="stop-color:#F8F8F9"/>
			<stop  offset="0.6245" style="stop-color:#E5E6E6"/>
			<stop  offset="0.7051" style="stop-color:#C6C7C9"/>
			<stop  offset="0.7747" style="stop-color:#A6A7AA"/>
			<stop  offset="0.8575" style="stop-color:#B4B6B8"/>
			<stop  offset="0.9283" style="stop-color:#BABCBE"/>
			<stop  offset="0.999" style="stop-color:#919395"/>
		</linearGradient>
		<ellipse class="st19" cx="30.9" cy="37.6" rx="2.1" ry="2"/>
		<linearGradient id="SVGID_15_" gradientUnits="userSpaceOnUse" x1="22.269" y1="37.5828" x2="27.7409" y2="37.5888">
			<stop  offset="0" style="stop-color:#808083"/>
			<stop  offset="4.175627e-02" style="stop-color:#969698"/>
			<stop  offset="8.760553e-02" style="stop-color:#A6A6A8"/>
			<stop  offset="0.139" style="stop-color:#B0B0B1"/>
			<stop  offset="0.2071" style="stop-color:#B3B3B4"/>
			<stop  offset="0.3754" style="stop-color:#E0E0E0"/>
			<stop  offset="0.5081" style="stop-color:#FFFFFF"/>
			<stop  offset="0.5559" style="stop-color:#F8F8F9"/>
			<stop  offset="0.6245" style="stop-color:#E5E6E6"/>
			<stop  offset="0.7051" style="stop-color:#C6C7C9"/>
			<stop  offset="0.7747" style="stop-color:#A6A7AA"/>
			<stop  offset="0.8575" style="stop-color:#B4B6B8"/>
			<stop  offset="0.9283" style="stop-color:#BABCBE"/>
			<stop  offset="0.999" style="stop-color:#919395"/>
		</linearGradient>
		<ellipse class="st20" cx="24.9" cy="37.6" rx="2.1" ry="2"/>
		<linearGradient id="SVGID_16_" gradientUnits="userSpaceOnUse" x1="16.3457" y1="37.5828" x2="21.8176" y2="37.5888">
			<stop  offset="0" style="stop-color:#808083"/>
			<stop  offset="4.175627e-02" style="stop-color:#969698"/>
			<stop  offset="8.760553e-02" style="stop-color:#A6A6A8"/>
			<stop  offset="0.139" style="stop-color:#B0B0B1"/>
			<stop  offset="0.2071" style="stop-color:#B3B3B4"/>
			<stop  offset="0.3754" style="stop-color:#E0E0E0"/>
			<stop  offset="0.5081" style="stop-color:#FFFFFF"/>
			<stop  offset="0.5559" style="stop-color:#F8F8F9"/>
			<stop  offset="0.6245" style="stop-color:#E5E6E6"/>
			<stop  offset="0.7051" style="stop-color:#C6C7C9"/>
			<stop  offset="0.7747" style="stop-color:#A6A7AA"/>
			<stop  offset="0.8575" style="stop-color:#B4B6B8"/>
			<stop  offset="0.9283" style="stop-color:#BABCBE"/>
			<stop  offset="0.999" style="stop-color:#919395"/>
		</linearGradient>
		<ellipse class="st21" cx="19" cy="37.6" rx="2.1" ry="2"/>
		<linearGradient id="SVGID_17_" gradientUnits="userSpaceOnUse" x1="27.5427" y1="43.5757" x2="34.3865" y2="43.5833">
			<stop  offset="0" style="stop-color:#808083"/>
			<stop  offset="4.175627e-02" style="stop-color:#969698"/>
			<stop  offset="8.760553e-02" style="stop-color:#A6A6A8"/>
			<stop  offset="0.139" style="stop-color:#B0B0B1"/>
			<stop  offset="0.2071" style="stop-color:#B3B3B4"/>
			<stop  offset="0.3754" style="stop-color:#E0E0E0"/>
			<stop  offset="0.5081" style="stop-color:#FFFFFF"/>
			<stop  offset="0.5559" style="stop-color:#F8F8F9"/>
			<stop  offset="0.6245" style="stop-color:#E5E6E6"/>
			<stop  offset="0.7051" style="stop-color:#C6C7C9"/>
			<stop  offset="0.7747" style="stop-color:#A6A7AA"/>
			<stop  offset="0.8575" style="stop-color:#B4B6B8"/>
			<stop  offset="0.9283" style="stop-color:#BABCBE"/>
			<stop  offset="0.999" style="stop-color:#919395"/>
		</linearGradient>
		<circle class="st22" cx="30.9" cy="43.6" r="2.7"/>
		<linearGradient id="SVGID_18_" gradientUnits="userSpaceOnUse" x1="28.2121" y1="43.5765" x2="33.684" y2="43.5826">
			<stop  offset="0" style="stop-color:#808083"/>
			<stop  offset="4.175627e-02" style="stop-color:#969698"/>
			<stop  offset="8.760553e-02" style="stop-color:#A6A6A8"/>
			<stop  offset="0.139" style="stop-color:#B0B0B1"/>
			<stop  offset="0.2071" style="stop-color:#B3B3B4"/>
			<stop  offset="0.3754" style="stop-color:#E0E0E0"/>
			<stop  offset="0.5081" style="stop-color:#FFFFFF"/>
			<stop  offset="0.5559" style="stop-color:#F8F8F9"/>
			<stop  offset="0.6245" style="stop-color:#E5E6E6"/>
			<stop  offset="0.7051" style="stop-color:#C6C7C9"/>
			<stop  offset="0.7747" style="stop-color:#A6A7AA"/>
			<stop  offset="0.8575" style="stop-color:#B4B6B8"/>
			<stop  offset="0.9283" style="stop-color:#BABCBE"/>
			<stop  offset="0.999" style="stop-color:#919395"/>
		</linearGradient>
		<ellipse class="st23" cx="30.9" cy="43.6" rx="2.1" ry="2"/>
		<linearGradient id="SVGID_19_" gradientUnits="userSpaceOnUse" x1="21.6018" y1="43.5757" x2="28.5079" y2="43.5834">
			<stop  offset="0" style="stop-color:#808083"/>
			<stop  offset="4.175627e-02" style="stop-color:#969698"/>
			<stop  offset="8.760553e-02" style="stop-color:#A6A6A8"/>
			<stop  offset="0.139" style="stop-color:#B0B0B1"/>
			<stop  offset="0.2071" style="stop-color:#B3B3B4"/>
			<stop  offset="0.3754" style="stop-color:#E0E0E0"/>
			<stop  offset="0.5081" style="stop-color:#FFFFFF"/>
			<stop  offset="0.5559" style="stop-color:#F8F8F9"/>
			<stop  offset="0.6245" style="stop-color:#E5E6E6"/>
			<stop  offset="0.7051" style="stop-color:#C6C7C9"/>
			<stop  offset="0.7747" style="stop-color:#A6A7AA"/>
			<stop  offset="0.8575" style="stop-color:#B4B6B8"/>
			<stop  offset="0.9283" style="stop-color:#BABCBE"/>
			<stop  offset="0.999" style="stop-color:#919395"/>
		</linearGradient>
		<circle class="st24" cx="25" cy="43.6" r="2.7"/>
		<linearGradient id="SVGID_20_" gradientUnits="userSpaceOnUse" x1="22.3016" y1="43.5765" x2="27.7735" y2="43.5826">
			<stop  offset="0" style="stop-color:#808083"/>
			<stop  offset="4.175627e-02" style="stop-color:#969698"/>
			<stop  offset="8.760553e-02" style="stop-color:#A6A6A8"/>
			<stop  offset="0.139" style="stop-color:#B0B0B1"/>
			<stop  offset="0.2071" style="stop-color:#B3B3B4"/>
			<stop  offset="0.3754" style="stop-color:#E0E0E0"/>
			<stop  offset="0.5081" style="stop-color:#FFFFFF"/>
			<stop  offset="0.5559" style="stop-color:#F8F8F9"/>
			<stop  offset="0.6245" style="stop-color:#E5E6E6"/>
			<stop  offset="0.7051" style="stop-color:#C6C7C9"/>
			<stop  offset="0.7747" style="stop-color:#A6A7AA"/>
			<stop  offset="0.8575" style="stop-color:#B4B6B8"/>
			<stop  offset="0.9283" style="stop-color:#BABCBE"/>
			<stop  offset="0.999" style="stop-color:#919395"/>
		</linearGradient>
		<ellipse class="st25" cx="25" cy="43.6" rx="2.1" ry="2"/>
		<linearGradient id="SVGID_21_" gradientUnits="userSpaceOnUse" x1="15.6592" y1="43.5757" x2="22.5654" y2="43.5834">
			<stop  offset="0" style="stop-color:#808083"/>
			<stop  offset="4.175627e-02" style="stop-color:#969698"/>
			<stop  offset="8.760553e-02" style="stop-color:#A6A6A8"/>
			<stop  offset="0.139" style="stop-color:#B0B0B1"/>
			<stop  offset="0.2071" style="stop-color:#B3B3B4"/>
			<stop  offset="0.3754" style="stop-color:#E0E0E0"/>
			<stop  offset="0.5081" style="stop-color:#FFFFFF"/>
			<stop  offset="0.5559" style="stop-color:#F8F8F9"/>
			<stop  offset="0.6245" style="stop-color:#E5E6E6"/>
			<stop  offset="0.7051" style="stop-color:#C6C7C9"/>
			<stop  offset="0.7747" style="stop-color:#A6A7AA"/>
			<stop  offset="0.8575" style="stop-color:#B4B6B8"/>
			<stop  offset="0.9283" style="stop-color:#BABCBE"/>
			<stop  offset="0.999" style="stop-color:#919395"/>
		</linearGradient>
		<circle class="st26" cx="19" cy="43.6" r="2.7"/>
		<linearGradient id="SVGID_22_" gradientUnits="userSpaceOnUse" x1="16.359" y1="43.5765" x2="21.831" y2="43.5826">
			<stop  offset="0" style="stop-color:#808083"/>
			<stop  offset="4.175627e-02" style="stop-color:#969698"/>
			<stop  offset="8.760553e-02" style="stop-color:#A6A6A8"/>
			<stop  offset="0.139" style="stop-color:#B0B0B1"/>
			<stop  offset="0.2071" style="stop-color:#B3B3B4"/>
			<stop  offset="0.3754" style="stop-color:#E0E0E0"/>
			<stop  offset="0.5081" style="stop-color:#FFFFFF"/>
			<stop  offset="0.5559" style="stop-color:#F8F8F9"/>
			<stop  offset="0.6245" style="stop-color:#E5E6E6"/>
			<stop  offset="0.7051" style="stop-color:#C6C7C9"/>
			<stop  offset="0.7747" style="stop-color:#A6A7AA"/>
			<stop  offset="0.8575" style="stop-color:#B4B6B8"/>
			<stop  offset="0.9283" style="stop-color:#BABCBE"/>
			<stop  offset="0.999" style="stop-color:#919395"/>
		</linearGradient>
		<ellipse class="st27" cx="19" cy="43.6" rx="2.1" ry="2"/>
	</g>
</g>
</svg>
